{"title":"Watergate 03 (2009)-Konrad Black [flac]","uid":6084076,"size":395462412,"categoryP":"audio","categoryS":"flac","magnet":"?xt=urn:btih:78109cdce39cbc6247fc0857121c2712ef6a3f52&amp;dn=Watergate+03+%282009%29-Konrad+Black+%5Bflac%5D&amp;tr=udp%3A%2F%2Ftracker.openbittorrent.com%3A80&amp;tr=udp%3A%2F%2Fopen.demonii.com%3A1337&amp;tr=udp%3A%2F%2Ftracker.coppersurfer.tk%3A6969&amp;tr=udp%3A%2F%2Fexodus.desync.com%3A6969","seeders":0,"leechers":1,"uploader":"CTACyan","files":15,"time":1294243243,"description":"Exact Audio Copy V0.99 prebeta 4 from 23. January 2008\n\nEAC extraction logfile from 26. January 2010, 22:54\n\nVarious / Konrad Black - Watergate 03\n\nUsed drive  : PLEXTOR DVDR   PX-755A   Adapter: 1  ID: 0\n\nRead mode               : Secure\nUtilize accurate stream : Yes\nDefeat audio cache      : Yes\nMake use of C2 pointers : No\n\nRead offset correction                      : 30\nOverread into Lead-In and Lead-Out          : Yes\nFill up missing offset samples with silence : Yes\nDelete leading and trailing silent blocks   : No\nNull samples used in CRC calculations       : Yes\nUsed interface                              : Native Win32 interface for Win NT &amp; 2000\nGap handling                                : Appended to previous track\n\nUsed output format              : User Defined Encoder\nSelected bitrate                : 128 kBit/s\nQuality                         : High\nAdd ID3 tag                     : No\nCommand line compressor         : C:\\Program Files\\Exact Audio Copy\\Flac\\flac.exe\nAdditional command line options : -8 -V -T &quot;ARTIST=%a&quot; -T &quot;TITLE=%t&quot; -T &quot;ALBUM=%g&quot; -T &quot;DATE=%y&quot; -T &quot;TRACKNUMBER=%n&quot; -T &quot;GENRE=%m&quot; -T &quot;COMMENT=EAC FLAC -8&quot; %s\n\n\nTOC of the extracted CD\n\n     Track |   Start  |  Length  | Start sector | End sector \n    ---------------------------------------------------------\n        1  |  0:00.00 |  7:29.12 |         0    |    33686   \n        2  |  7:29.12 |  3:05.60 |     33687    |    47621   \n        3  | 10:34.72 |  4:50.25 |     47622    |    69396   \n        4  | 15:25.22 |  3:05.60 |     69397    |    83331   \n        5  | 18:31.07 |  6:26.74 |     83332    |   112355   \n        6  | 24:58.06 |  3:52.28 |    112356    |   129783   \n        7  | 28:50.34 |  4:07.56 |    129784    |   148364   \n        8  | 32:58.15 |  3:52.19 |    148365    |   165783   \n        9  | 36:50.34 |  5:17.34 |    165784    |   189592   \n       10  | 42:07.68 |  4:38.50 |    189593    |   210492   \n       11  | 46:46.43 |  6:00.01 |    210493    |   237493   \n       12  | 52:46.44 |  4:58.03 |    237494    |   259846   \n       13  | 57:44.47 |  3:02.24 |    259847    |   273520   \n\n\nTrack  1\n\n     Filename F:\\Torrents\\VA - Konrad Black - Watergate 03\\Various - Konrad Black - Watergate 03\\01. Alex Cortex - Nachttarif.wav\n\n     Pre-gap length  0:00:02.00\n\n     Peak level 99.6 %\n     Track quality 100.0 %\n     Test CRC BB6D6661\n     Copy CRC BB6D6661\n     Accurately ripped (confidence 2)  [80C1A589]\n     Copy OK\n\nTrack  2\n\n     Filename F:\\Torrents\\VA - Konrad Black - Watergate 03\\Various - Konrad Black - Watergate 03\\02. D.Diggler - Silicone.wav\n\n     Peak level 99.7 %\n     Track quality 100.0 %\n     Test CRC 7BE74254\n     Copy CRC 7BE74254\n     Accurately ripped (confidence 2)  [C7C9F405]\n     Copy OK\n\nTrack  3\n\n     Filename F:\\Torrents\\VA - Konrad Black - Watergate 03\\Various - Konrad Black - Watergate 03\\03. Raudive - Cone (Edit).wav\n\n     Peak level 99.7 %\n     Track quality 100.0 %\n     Test CRC 03544038\n     Copy CRC 03544038\n     Accurately ripped (confidence 1)  [F4D02C0C]\n     Copy OK\n\nTrack  4\n\n     Filename F:\\Torrents\\VA - Konrad Black - Watergate 03\\Various - Konrad Black - Watergate 03\\04. Loco Dice - Breakfast At Nina (Onur Ozer Mix).wav\n\n     Peak level 99.6 %\n     Track quality 100.0 %\n     Test CRC F6E6058A\n     Copy CRC F6E6058A\n     Accurately ripped (confidence 2)  [A9D0A33A]\n     Copy OK\n\nTrack  5\n\n     Filename F:\\Torrents\\VA - Konrad Black - Watergate 03\\Various - Konrad Black - Watergate 03\\05. Konrad Black , Martin Buttrich - Untitled.wav\n\n     Peak level 99.5 %\n     Track quality 100.0 %\n     Test CRC 04A14476\n     Copy CRC 04A14476\n     Accurately ripped (confidence 1)  [E4A10712]\n     Copy OK\n\nTrack  6\n\n     Filename F:\\Torrents\\VA - Konrad Black - Watergate 03\\Various - Konrad Black - Watergate 03\\06. Matthew Dear, Seth Troxler - Hurt.wav\n\n     Peak level 99.6 %\n     Track quality 100.0 %\n     Test CRC 93A4343E\n     Copy CRC 93A4343E\n     Accurately ripped (confidence 2)  [C3D559FA]\n     Copy OK\n\nTrack  7\n\n     Filename F:\\Torrents\\VA - Konrad Black - Watergate 03\\Various - Konrad Black - Watergate 03\\07. Stephan G - Shass.wav\n\n     Peak level 99.6 %\n     Track quality 100.0 %\n     Test CRC CF408EE6\n     Copy CRC CF408EE6\n     Accurately ripped (confidence 2)  [A7636A95]\n     Copy OK\n\nTrack  8\n\n     Filename F:\\Torrents\\VA - Konrad Black - Watergate 03\\Various - Konrad Black - Watergate 03\\08. Queen Atom - Enemy Of Time (Cesare vs Disorder On Time Edit).wav\n\n     Peak level 99.6 %\n     Track quality 100.0 %\n     Test CRC 4FE4FA39\n     Copy CRC 4FE4FA39\n     Accurately ripped (confidence 2)  [60CF717C]\n     Copy OK\n\nTrack  9\n\n     Filename F:\\Torrents\\VA - Konrad Black - Watergate 03\\Various - Konrad Black - Watergate 03\\09. Louderbach - Shine (Thrill Cosby Broken Door Mix Vox. Dilo).wav\n\n     Peak level 99.1 %\n     Track quality 99.9 %\n     Test CRC E0773D99\n     Copy CRC E0773D99\n     Accurately ripped (confidence 2)  [1FB98E42]\n     Copy OK\n\nTrack 10\n\n     Filename F:\\Torrents\\VA - Konrad Black - Watergate 03\\Various - Konrad Black - Watergate 03\\10. Ben Klock - Sub Zero.wav\n\n     Peak level 99.6 %\n     Track quality 100.0 %\n     Test CRC AEB49C39\n     Copy CRC AEB49C39\n     Accurately ripped (confidence 2)  [13E49D89]\n     Copy OK\n\nTrack 11\n\n     Filename F:\\Torrents\\VA - Konrad Black - Watergate 03\\Various - Konrad Black - Watergate 03\\11. Discogs - Real Love EQ (Italy Version).wav\n\n     Peak level 99.6 %\n     Track quality 100.0 %\n     Test CRC 91715A5A\n     Copy CRC 91715A5A\n     Accurately ripped (confidence 2)  [2260AA49]\n     Copy OK\n\nTrack 12\n\n     Filename F:\\Torrents\\VA - Konrad Black - Watergate 03\\Various - Konrad Black - Watergate 03\\12. Paul Ritch - Evil Laff (Konrad Black Remix).wav\n\n     Peak level 99.7 %\n     Track quality 100.0 %\n     Test CRC 5C383FA1\n     Copy CRC 5C383FA1\n     Accurately ripped (confidence 2)  [61F50ADE]\n     Copy OK\n\nTrack 13\n\n     Filename F:\\Torrents\\VA - Konrad Black - Watergate 03\\Various - Konrad Black - Watergate 03\\13. Mathew Jonson - Walking On The Hands That Follow Me.wav\n\n     Peak level 99.3 %\n     Track quality 100.0 %\n     Test CRC ADC2B9F6\n     Copy CRC ADC2B9F6\n     Accurately ripped (confidence 2)  [0807D3D9]\n     Copy OK\n\n\nAll tracks accurately ripped\n\nNo errors occurred\n\nEnd of status report\n","torrent":{"xt":"urn:btih:78109cdce39cbc6247fc0857121c2712ef6a3f52","amp;dn":"Watergate+03+%282009%29-Konrad+Black+%5Bflac%5D","amp;tr":["udp%3A%2F%2Ftracker.openbittorrent.com%3A80","udp%3A%2F%2Fopen.demonii.com%3A1337","udp%3A%2F%2Ftracker.coppersurfer.tk%3A6969","udp%3A%2F%2Fexodus.desync.com%3A6969"],"infoHash":"78109cdce39cbc6247fc0857121c2712ef6a3f52","infoHashBuffer":{"type":"Buffer","data":[120,16,156,220,227,156,188,98,71,252,8,87,18,28,39,18,239,106,63,82]},"announce":[],"urlList":[]}}